HIERARCHY
ROOT humanoid_root
{
	OFFSET 0.000000 0.000000 0.000000
	CHANNELS 6 Xposition Yposition Zposition Zrotation Yrotation Xrotation
	JOINT lhipjoint
	{
		OFFSET 0.000000 0.000000 0.000000
		CHANNELS 6 Xposition Yposition Zposition Zrotation Yrotation Xrotation
		JOINT lfemur
		{
			OFFSET 1.887723 -0.856360 -1.627692
			CHANNELS 3 Zrotation Yrotation Xrotation
			JOINT ltibia
			{
				OFFSET 2.398363 -0.000000 -6.589455
				CHANNELS 6 Xposition Yposition Zposition Zrotation Yrotation Xrotation
				JOINT lfoot
				{
					OFFSET 2.785233 -0.000001 -7.652369
					CHANNELS 6 Xposition Yposition Zposition Zrotation Yrotation Xrotation
					JOINT ltoes
					{
						OFFSET 0.195506 -1.906938 -0.537149
						CHANNELS 6 Xposition Yposition Zposition Zrotation Yrotation Xrotation
						End Site
						{
							OFFSET 0.000000 -0.997350 0.000000
						}
					}
				}
			}
		}
	}
	JOINT rhipjoint
	{
		OFFSET 0.000000 0.000000 0.000000
		CHANNELS 6 Xposition Yposition Zposition Zrotation Yrotation Xrotation
		JOINT rfemur
		{
			OFFSET -1.742818 -0.856361 -1.627690
			CHANNELS 3 Zrotation Yrotation Xrotation
			JOINT rtibia
			{
				OFFSET -2.360618 -0.000000 -6.485751
				CHANNELS 6 Xposition Yposition Zposition Zrotation Yrotation Xrotation
				JOINT rfoot
				{
					OFFSET -2.762580 -0.000001 -7.590133
					CHANNELS 6 Xposition Yposition Zposition Zrotation Yrotation Xrotation
					JOINT rtoes
					{
						OFFSET -0.193080 -2.039523 -0.530481
						CHANNELS 6 Xposition Yposition Zposition Zrotation Yrotation Xrotation
						End Site
						{
							OFFSET 0.000000 -1.060310 0.000000
						}
					}
				}
			}
		}
	}
	JOINT lowerback
	{
		OFFSET 0.000000 0.000000 0.000000
		CHANNELS 6 Xposition Yposition Zposition Zrotation Yrotation Xrotation
		JOINT upperback
		{
			OFFSET -0.082989 0.307214 2.031598
			CHANNELS 3 Zrotation Yrotation Xrotation
			JOINT thorax
			{
				OFFSET -0.010299 -0.138909 2.006030
				CHANNELS 6 Xposition Yposition Zposition Zrotation Yrotation Xrotation
				JOINT lowerneck
				{
					OFFSET 0.028457 -0.302327 2.068176
					CHANNELS 3 Zrotation Yrotation Xrotation
					JOINT upperneck
					{
						OFFSET 0.042823 -0.199911 1.695780
						CHANNELS 6 Xposition Yposition Zposition Zrotation Yrotation Xrotation
						JOINT head
						{
							OFFSET -0.086650 0.037848 1.666219
							CHANNELS 6 Xposition Yposition Zposition Zrotation Yrotation Xrotation
							End Site
							{
								OFFSET -0.036993 0.040936 1.833290
							}
						}
					}
				}
				JOINT lclavicle
				{
					OFFSET 0.028457 -0.302327 2.068176
					CHANNELS 3 Zrotation Yrotation Xrotation
					JOINT lhumerus
					{
						OFFSET 3.042191 0.053467 1.508028
						CHANNELS 6 Xposition Yposition Zposition Zrotation Yrotation Xrotation
						JOINT lradius
						{
							OFFSET 5.791990 0.000000 0.000000
							CHANNELS 6 Xposition Yposition Zposition Zrotation Yrotation Xrotation
							JOINT lwrist
							{
								OFFSET 3.499080 0.000000 0.000000
								CHANNELS 6 Xposition Yposition Zposition Zrotation Yrotation Xrotation
								JOINT lhand
								{
									OFFSET 1.749540 0.000000 0.000000
									CHANNELS 3 Zrotation Yrotation Xrotation
									JOINT lfingers
									{
										OFFSET 0.593861 0.000000 0.000000
										CHANNELS 6 Xposition Yposition Zposition Zrotation Yrotation Xrotation
										End Site
										{
											OFFSET 0.478786 0.000000 0.000000
										}
									}
								}
								JOINT lthumb
								{
									OFFSET 1.749540 0.000000 0.000000
									CHANNELS 3 Zrotation Yrotation Xrotation
									End Site
									{
										OFFSET 0.486096 -0.486096 0.000000
									}
								}
							}
						}
					}
				}
				JOINT rclavicle
				{
					OFFSET 0.028457 -0.302327 2.068176
					CHANNELS 3 Zrotation Yrotation Xrotation
					JOINT rhumerus
					{
						OFFSET -3.303163 -0.111754 1.188528
						CHANNELS 6 Xposition Yposition Zposition Zrotation Yrotation Xrotation
						JOINT rradius
						{
							OFFSET -5.737989 0.000000 0.000000
							CHANNELS 6 Xposition Yposition Zposition Zrotation Yrotation Xrotation
							JOINT rwrist
							{
								OFFSET -3.579160 0.000000 0.000000
								CHANNELS 6 Xposition Yposition Zposition Zrotation Yrotation Xrotation
								JOINT rhand
								{
									OFFSET -1.789580 0.000000 0.000000
									CHANNELS 3 Zrotation Yrotation Xrotation
									JOINT rfingers
									{
										OFFSET -0.615577 0.000000 0.000000
										CHANNELS 6 Xposition Yposition Zposition Zrotation Yrotation Xrotation
										End Site
										{
											OFFSET -0.496294 0.000000 0.000000
										}
									}
								}
								JOINT rthumb
								{
									OFFSET -1.789580 0.000000 0.000000
									CHANNELS 3 Zrotation Yrotation Xrotation
									End Site
									{
										OFFSET -0.503872 -0.503872 0.000000
									}
								}
							}
						}
					}
				}
			}
		}
	}
}
MOTION
Frames: 5
Frame Time: 0.041667
-1.963100 -4.811278 18.654600 -168.067637 -10.156513 14.635888 -0.000000 0.000001 0.000002 0.000003 -0.000000 0.000000 5.317173 27.026714 3.899318 2.398363 -0.000001 -6.589455 9.579555 -2.323367 27.208301 2.785233 -0.000001 -7.652370 11.180577 -1.321785 20.777342 0.195507 -1.906938 -0.537149 -0.860882 -0.020200 -2.366111 -0.000000 0.000001 0.000002 0.000000 -0.000000 0.000000 6.286433 -13.808092 -57.217919 -2.360618 -0.000001 -6.485752 -15.552578 6.868860 47.447719 -2.762581 -0.000002 -7.590133 -4.640942 0.317405 10.048536 -0.193080 -2.039523 -0.530484 3.081278 0.260491 -8.505594 -0.000000 0.000001 0.000002 -1.901849 5.375905 4.242846 -2.905731 -1.942671 -3.947153 -0.010299 -0.138909 2.006033 -1.174772 -5.347372 -6.248441 -0.591471 -4.573898 -7.071461 0.042823 -0.199911 1.695781 -1.040213 4.190662 2.483568 -0.086650 0.037848 1.666217 -0.590746 2.191044 1.989764 0.000001 -4.574136 -0.000000 3.042188 0.053467 1.508026 18.736983 63.875273 73.691758 5.791992 -0.000001 0.000001 -73.337872 -45.021445 18.046316 3.499080 0.000001 -0.000001 0.000002 0.000001 -0.467452 -26.316575 -9.018827 -0.292319 0.593861 -0.000001 0.000002 0.000000 6.280949 -0.000003 2.149890 10.844647 11.043571 0.000001 -4.574140 -0.000001 -3.303163 -0.111755 1.188527 -68.597721 -54.169096 111.344788 -5.737994 -0.000000 0.000002 0.423157 0.245074 -0.077264 -3.579161 0.000001 0.000002 0.000002 -0.000001 -12.848655 -30.082277 14.948540 0.569972 -0.615577 -0.000000 -0.000001 0.000004 -6.280953 -0.000003 -56.532154 -7.740441 5.815741 
-1.994200 -4.610699 18.594700 -168.320177 -10.966906 14.257991 -0.000000 -0.000000 0.000000 0.000002 -0.000000 -0.000003 6.001517 27.640264 3.308032 2.398363 -0.000002 -6.589453 10.515103 -2.834009 30.092687 2.785234 -0.000003 -7.652370 10.249811 -1.879683 24.489416 0.195506 -1.906939 -0.537147 1.579046 -0.068046 4.343707 -0.000000 -0.000000 0.000000 -0.000003 -0.000001 -0.000001 5.740231 -13.458073 -55.731581 -2.360617 -0.000001 -6.485750 -15.212925 6.509756 46.133557 -2.762580 -0.000002 -7.590133 -5.851466 0.205026 8.454814 -0.193080 -2.039524 -0.530484 2.422350 0.160549 -6.674619 -0.000000 -0.000000 0.000000 -1.893138 5.893114 4.321113 -2.934062 -1.796024 -3.851443 -0.010299 -0.138910 2.006032 -1.170707 -5.487701 -6.174307 -0.603755 -4.734518 -7.110406 0.042824 -0.199910 1.695780 -1.058749 4.605007 2.492736 -0.086650 0.037848 1.666219 -0.611248 2.360645 2.001582 0.000002 -4.734782 0.000000 3.042191 0.053466 1.508024 19.706257 64.206435 75.052195 5.791989 -0.000004 0.000003 -71.359945 -44.239951 16.757352 3.499080 0.000000 -0.000003 -0.000001 -0.000002 -0.463398 -26.553595 -9.130120 -0.299012 0.593862 -0.000001 -0.000001 -0.000000 6.280951 -0.000002 1.901370 10.772180 10.970064 0.000000 -4.734779 -0.000003 -3.303164 -0.111754 1.188528 -68.778475 -54.621900 110.891441 -5.737989 0.000001 0.000003 0.418921 0.242605 -0.075475 -3.579159 0.000001 -0.000000 0.000001 0.000000 -12.636769 -30.397501 15.425320 0.595752 -0.615579 -0.000000 -0.000000 0.000000 -6.280949 -0.000002 -56.791360 -7.412649 5.526592 
-2.025080 -4.408099 18.547100 -168.941177 -11.471865 14.093890 0.000000 0.000001 0.000003 0.000000 -0.000000 -0.000003 6.484556 28.025759 2.722675 2.398363 -0.000002 -6.589455 11.461428 -3.415139 33.089371 2.785232 -0.000002 -7.652369 8.022571 -1.421760 21.237037 0.195505 -1.906938 -0.537150 -2.545769 -0.177407 -7.016816 0.000000 0.000001 0.000003 0.000000 -0.000003 0.000000 5.772693 -13.318121 -54.369091 -2.360617 -0.000001 -6.485751 -14.899615 6.192435 44.946709 -2.762580 -0.000002 -7.590130 -7.536936 0.065690 6.630369 -0.193080 -2.039523 -0.530484 2.096116 0.120073 -5.771487 0.000000 0.000001 0.000003 -1.765829 6.297100 4.351967 -2.791485 -1.751590 -3.780838 -0.010299 -0.138909 2.006028 -1.085464 -5.655661 -6.121286 -0.559015 -4.658358 -7.289198 0.042823 -0.199911 1.695778 -0.999418 4.669571 2.495499 -0.086650 0.037848 1.666218 -0.587525 2.368797 2.037327 0.000000 -4.658578 -0.000001 3.042191 0.053468 1.508027 20.645352 64.573729 76.331544 5.791988 -0.000001 0.000001 -69.486786 -43.424604 15.576762 3.499081 -0.000000 -0.000002 0.000000 -0.000000 -0.457921 -26.322390 -9.369358 -0.303869 0.593862 -0.000000 -0.000001 -0.000000 6.280952 0.000001 2.119541 10.612920 10.798340 -0.000000 -4.658576 -0.000002 -3.303163 -0.111754 1.188530 -68.873100 -55.148293 110.331003 -5.737991 -0.000001 0.000003 0.413476 0.239427 -0.073219 -3.579160 0.000000 0.000002 0.000001 0.000001 -12.233607 -30.337539 15.835998 0.610580 -0.615576 -0.000001 0.000001 0.000002 -6.280953 0.000002 -56.727340 -7.102574 5.293346 
-2.056210 -4.202749 18.506701 -169.593829 -11.682167 13.860369 -0.000000 -0.000001 0.000000 0.000001 -0.000002 -0.000001 6.634299 28.154501 2.215401 2.398363 -0.000001 -6.589455 12.390210 -4.054665 36.123098 2.785232 -0.000001 -7.652370 8.046109 -1.339117 20.612210 0.195507 -1.906938 -0.537151 -1.442997 -0.056807 -3.968652 -0.000000 -0.000001 0.000000 -0.000002 -0.000002 -0.000002 5.832663 -13.556116 -52.990978 -2.360618 -0.000002 -6.485751 -14.622033 5.921835 43.913950 -2.762580 -0.000001 -7.590130 -9.236014 -0.072274 5.059164 -0.193080 -2.039523 -0.530484 2.690534 0.198269 -7.418630 -0.000000 -0.000001 0.000000 -1.667487 6.534632 4.542760 -2.680157 -1.889194 -3.761727 -0.010299 -0.138907 2.006034 -1.011714 -5.935971 -6.216460 -0.471948 -4.438743 -7.319035 0.042823 -0.199910 1.695781 -0.859142 4.808324 2.570339 -0.086649 0.037847 1.666218 -0.525892 2.370969 2.072715 0.000001 -4.438889 -0.000003 3.042191 0.053468 1.508023 22.318084 65.020532 78.082695 5.791992 -0.000000 0.000003 -67.757143 -42.603626 14.525902 3.499080 -0.000001 -0.000005 0.000000 -0.000005 -0.451579 -25.734018 -9.438707 -0.298358 0.593861 -0.000000 -0.000002 0.000000 6.280949 0.000001 2.711905 10.564460 10.739070 -0.000001 -4.438890 -0.000003 -3.303164 -0.111754 1.188527 -68.525307 -55.427897 109.704292 -5.737991 -0.000002 0.000004 0.408558 0.236562 -0.071220 -3.579161 0.000001 -0.000001 0.000000 0.000000 -11.939169 -30.164786 15.966681 0.611660 -0.615577 -0.000003 0.000001 0.000001 -6.280949 0.000000 -56.573688 -6.991972 5.225592 
-2.086170 -3.997029 18.461700 -170.127581 -11.825346 13.457361 0.000001 0.000000 -0.000001 0.000003 0.000003 -0.000001 6.831244 28.116612 1.666975 2.398363 -0.000001 -6.589454 13.325442 -4.775545 39.289864 2.785233 -0.000000 -7.652371 7.716619 -1.293633 20.251794 0.195506 -1.906938 -0.537148 -0.939241 -0.024041 -2.581659 0.000001 0.000000 -0.000001 -0.000003 0.000003 -0.000006 5.781835 -13.935518 -51.367138 -2.360618 -0.000001 -6.485751 -14.356060 5.671371 42.939750 -2.762581 -0.000001 -7.590133 -11.166818 -0.236582 3.477228 -0.193080 -2.039523 -0.530486 2.805803 0.215728 -7.738905 0.000001 0.000000 -0.000001 -1.640747 6.538993 4.736112 -2.646779 -1.940829 -3.669449 -0.010299 -0.138908 2.006029 -0.993015 -5.996465 -6.232324 -0.392683 -4.403545 -7.214546 0.042824 -0.199912 1.695784 -0.733469 5.109843 2.667128 -0.086650 0.037848 1.666220 -0.472592 2.460926 2.091738 0.000001 -4.403652 0.000001 3.042193 0.053468 1.508029 24.222882 65.278392 79.890817 5.791987 -0.000001 0.000001 -66.269897 -41.843474 13.656034 3.499079 0.000001 -0.000001 0.000000 -0.000001 -0.445505 -25.051655 -9.413365 -0.288630 0.593861 -0.000001 -0.000000 -0.000000 6.280951 -0.000000 3.405598 10.578541 10.744380 0.000000 -4.403650 0.000001 -3.303162 -0.111755 1.188528 -68.391599 -55.626550 109.491491 -5.737991 0.000001 0.000001 0.405510 0.234790 -0.070007 -3.579162 -0.000000 0.000001 0.000000 0.000003 -11.630777 -30.610859 16.025261 0.624533 -0.615577 -0.000000 -0.000001 0.000002 -6.280952 -0.000003 -56.958720 -6.983593 5.173588 
